# xmcd
#
# Track frame offsets:
#	150
#	19820
#	40512
#	61467
#	84180
#	106247
#	123740
#	140902
#	161407
#	181230
#	204930
#	222780
#	239327
#	257507
#
# Disc length: 3698
#
# Revision: 3
# Processed by: cddbd v1.5.1PL0 Copyright (c) Steve Scherf et al.
# Submitted via: cddb2pg 0.002
# Normalized: r2:DSETVAR1
#
DISCID=b90e700e
DTITLE=Various Artist - Schmuse-Rock CD1
DYEAR=1900
DGENRE=
TTITLE0=Tina Turner - I don't wanna lose you
TTITLE1=Climie Fisher - Love changes (everything)
TTITLE2=Living in a Box - Room in your heart
TTITLE3=George Michael - Careless whisper
TTITLE4=Roxette - Listen to your heart
TTITLE5=The Cars - Drive
TTITLE6=Alphaville - Forever young
TTITLE7=Don Johnson - Tell it like it is
TTITLE8=Richard Marx - Right here waiting
TTITLE9=Viktor Laszlo - Sweet, soft n' lazy
TTITLE10=Kool and the Gang - Cherish
TTITLE11=Adrian Gurvitz - Classic
TTITLE12=Kim Wilde - Four letter word
TTITLE13=Milli Vanilli - Girl I'm gonna miss you
EXTD=
EXTT0=
EXTT1=
EXTT2=
EXTT3=
EXTT4=
EXTT5=
EXTT6=
EXTT7=
EXTT8=
EXTT9=
EXTT10=
EXTT11=
EXTT12=
EXTT13=
PLAYORDER=
